<?xml version="1.0" encoding="UTF-8" standalone="no"?>
<svg
   xmlns:dc="http://purl.org/dc/elements/1.1/"
   xmlns:cc="http://creativecommons.org/ns#"
   xmlns:rdf="http://www.w3.org/1999/02/22-rdf-syntax-ns#"
   xmlns:svg="http://www.w3.org/2000/svg"
   xmlns="http://www.w3.org/2000/svg"
   xmlns:sodipodi="http://sodipodi.sourceforge.net/DTD/sodipodi-0.dtd"
   xmlns:inkscape="http://www.inkscape.org/namespaces/inkscape"
   version="1.1"
   id="Your_Icon"
   x="0px"
   y="0px"
   width="100px"
   height="100px"
   viewBox="0 0 100 100"
   enable-background="new 0 0 100 100"
   xml:space="preserve"
   inkscape:version="0.48.2 r9819"
   sodipodi:docname="noun_project_7516.svg"><metadata
   id="metadata15"><rdf:RDF><cc:Work
       rdf:about=""><dc:format>image/svg+xml</dc:format><dc:type
         rdf:resource="http://purl.org/dc/dcmitype/StillImage" /><dc:title></dc:title></cc:Work></rdf:RDF></metadata><defs
   id="defs13">
	
	
</defs><sodipodi:namedview
   pagecolor="#ffffff"
   bordercolor="#666666"
   borderopacity="1"
   objecttolerance="10"
   gridtolerance="10"
   guidetolerance="10"
   inkscape:pageopacity="0"
   inkscape:pageshadow="2"
   inkscape:window-width="1366"
   inkscape:window-height="705"
   id="namedview11"
   showgrid="false"
   inkscape:zoom="3.337544"
   inkscape:cx="29.553559"
   inkscape:cy="53.522318"
   inkscape:window-x="-8"
   inkscape:window-y="-8"
   inkscape:window-maximized="1"
   inkscape:current-layer="Your_Icon" />

<g
   id="g3002"><path
     d="m 72.061,0.128 c 3.064,-0.396 6.258,0.125 8.992,1.587 2.19,1.155 4.035,2.929 5.352,5.021 2.625,4.171 3.156,9.549 1.483,14.172 -0.747,2.076 -1.994,3.948 -3.505,5.545 -3.014,3.157 -7.084,5.393 -11.445,5.896 -0.267,0.021 -0.537,0.049 -0.802,0.007 C 72.22,31.594 72.051,30.842 71.97,30.09 71.233,25.865 68.915,21.931 65.553,19.262 63.574,17.69 61.234,16.514 58.737,16.06 58.663,15.671 58.715,15.27 58.725,14.878 58.952,12.155 59.703,9.433 61.179,7.112 63.524,3.322 67.641,0.696 72.061,0.128 z"
     id="path5"
     style="fill:#ff0066"
     inkscape:connector-curvature="0" /><g
     id="g7"
     style="fill:#ffcc00">
		<path
   d="m 14.881,16.692 c 2.68,-1.694 5.948,-2.399 9.091,-2.072 5.119,0.488 9.953,3.547 12.489,8.035 0.987,1.779 1.638,3.739 1.957,5.747 0.307,1.637 0.275,3.313 0.211,4.971 -0.138,1.482 -0.427,2.955 -0.907,4.365 -0.748,2.156 -1.954,4.215 -3.733,5.678 -0.074,0.204 0.11,0.413 0.239,0.555 0.619,0.14 1.304,0.115 1.878,0.386 -0.188,0.499 -0.606,0.918 -0.731,1.42 2.649,3.594 5.708,6.861 8.776,10.096 2.524,2.625 5.112,5.191 7.727,7.727 1.997,1.796 4.059,3.523 5.995,5.384 l 0.105,-0.005 c -1.3,-4.496 -2.255,-9.108 -2.691,-13.771 -0.139,-1.204 -0.248,-2.415 -0.201,-3.629 0.055,-0.622 0.376,-1.18 0.714,-1.681 -1.827,-0.097 -3.61,-0.685 -5.231,-1.521 -4.13,-2.203 -7.275,-6.071 -8.861,-10.45 -0.519,-1.429 -0.854,-2.924 -0.984,-4.438 -0.009,-0.809 -0.012,-1.62 0.001,-2.429 0.343,-4.613 2.944,-8.989 6.822,-11.512 2.641,-1.735 5.835,-2.628 8.991,-2.459 1.598,0.11 3.179,0.485 4.655,1.108 4.384,1.836 7.763,5.783 9.097,10.325 0.371,1.296 0.656,2.637 0.602,3.994 0.146,3.456 -0.973,6.875 -2.721,9.83 -1.127,1.897 -2.584,3.61 -4.32,4.976 -0.214,0.186 -0.518,0.302 -0.633,0.576 -1.367,3.827 -2.451,7.777 -2.888,11.826 -0.26,2.541 -0.3,5.115 0.059,7.647 l 0.096,-0.006 c 0.975,-1.602 2.457,-2.88 4.136,-3.702 0.638,-0.285 1.322,-0.595 2.035,-0.521 1.326,0.98 2.098,2.532 2.612,4.063 0.062,0.255 0.271,0.554 0.054,0.793 -1.172,1.732 -3.215,2.56 -5.139,3.16 l -0.031,0.089 c 0.219,0.013 0.441,0.018 0.656,0.081 1.234,0.27 2.472,0.539 3.692,0.879 1.296,0.335 2.611,0.702 3.745,1.444 2.703,1.653 4.184,4.892 4.109,8.003 L 76.24,81.641 c -0.46,-0.717 -0.922,-1.435 -1.39,-2.146 h -0.091 c -0.198,0.974 -0.188,2.205 -1.075,2.837 -0.302,-1.699 -1.172,-3.267 -2.345,-4.521 -1.759,-1.868 -4.051,-3.142 -6.412,-4.09 -1.012,-0.381 -2.028,-0.784 -3.086,-1.012 -0.035,0.196 0.132,0.338 0.238,0.481 1.67,1.811 3.319,3.671 4.587,5.792 0.441,0.692 0.726,1.462 1.059,2.205 0.801,1.373 1.346,2.925 1.389,4.52 0.625,1.023 1.064,2.204 1.02,3.418 -0.066,1.121 -0.695,2.179 -1.638,2.787 -1.412,0.825 -2.712,1.987 -3.39,3.503 0.007,0.734 0.686,1.223 1.144,1.722 0.273,0.414 -0.055,1.017 -0.548,1.007 -0.219,0.037 -0.367,-0.22 -0.577,-0.174 -0.052,0.588 0.681,0.929 0.574,1.527 -0.016,0.509 -0.743,0.646 -1.064,0.34 -0.639,-0.769 -0.979,-1.735 -1.138,-2.712 -0.505,-0.778 -1.023,-1.549 -1.549,-2.312 -0.398,-0.618 -0.86,-1.207 -1.125,-1.898 -0.46,-1.087 -0.423,-2.358 0.045,-3.436 0.836,-2.02 2.671,-3.443 3.428,-5.501 0.146,-0.592 0.416,-1.339 -0.033,-1.86 -1.901,-2.63 -3.424,-5.524 -4.625,-8.536 -0.044,0.003 -0.135,0.005 -0.18,0.008 -0.747,3.021 -0.725,6.155 -0.624,9.246 0.128,0.732 0.056,1.485 0.181,2.22 0.027,0.556 0.156,1.1 0.168,1.659 L 59.08,86.694 c -0.46,-0.701 -0.92,-1.403 -1.367,-2.111 l -0.076,-0.004 c -0.512,0.895 -0.991,1.823 -1.254,2.824 -0.031,-0.021 -0.093,-0.06 -0.124,-0.079 -0.616,-1.187 -0.854,-2.547 -0.816,-3.876 -0.062,-2.911 0.818,-5.727 1.702,-8.465 l -0.107,0.007 c -2.019,1.41 -4.556,2.128 -7.011,1.787 -0.238,-0.057 -0.502,-0.097 -0.698,-0.252 -0.609,-1.08 -0.801,-2.352 -0.767,-3.578 0.019,-0.62 -0.037,-1.275 0.188,-1.862 0.892,-0.641 1.996,-0.869 3.065,-0.993 2.038,-0.16 4.059,0.266 6.021,0.776 -0.009,-0.041 -0.024,-0.123 -0.031,-0.164 -1.801,-1.74 -3.663,-3.42 -5.563,-5.053 -1.064,-0.86 -1.989,-1.874 -2.986,-2.81 -3.091,-3.066 -6.173,-6.143 -9.107,-9.36 C 38.19,51.324 36.248,49.143 34.53,46.787 34.376,46.715 34.263,46.876 34.146,46.944 33.8,47.189 33.32,47.405 32.91,47.226 32.833,46.473 32.765,45.715 32.614,44.973 32.427,44.875 32.237,44.781 32.033,44.724 28.926,46.341 25.234,46.478 21.874,45.68 18.539,44.893 15.417,43.222 12.917,40.879 9.773,37.995 7.785,33.792 7.889,29.496 7.784,24.401 10.563,19.382 14.881,16.692 z m 44.114,33.011 c 0.01,0.314 -0.427,0.361 -0.381,0.638 0.396,0.285 0.76,0.609 1.152,0.901 0.105,0.109 0.36,0.229 0.222,0.415 -1.06,0.708 -2.274,1.385 -3.595,1.25 -0.062,0.523 0.085,1.036 0.104,1.559 0.411,4.644 1.316,9.245 2.59,13.733 l 0.098,0.025 c -0.127,-1.238 -0.298,-2.475 -0.329,-3.72 -0.143,-5.346 0.942,-10.665 2.712,-15.693 -0.848,0.319 -1.682,0.693 -2.573,0.892 z m 5.519,28.576 c 0.407,1.09 0.838,2.189 1.087,3.333 0.075,0.321 0.33,0.555 0.513,0.817 0.428,0.505 0.839,1.024 1.302,1.499 l 0.099,0.006 C 67.311,83.099 66.904,82.331 66.477,81.59 66.083,80.395 65.4,79.33 64.688,78.302 64.644,78.297 64.557,78.285 64.514,78.279 z m 1.006,6.083 c -0.661,2.01 -2.343,3.428 -3.301,5.273 -0.416,0.739 -0.558,1.635 -0.331,2.46 0.322,0.988 1.038,1.769 1.562,2.651 0.041,0.002 0.123,0.01 0.165,0.014 -0.101,-1.763 0.667,-3.442 1.672,-4.848 0.204,-0.32 0.56,-0.48 0.846,-0.713 0.762,-0.565 1.368,-1.374 1.571,-2.312 0.055,-0.294 0.217,-0.688 -0.08,-0.9 -0.678,-0.651 -1.323,-1.335 -1.925,-2.055 -0.16,0.069 -0.107,0.295 -0.179,0.43 z m 3.114,3.706 c -0.419,1.094 -1.316,1.923 -2.271,2.561 -0.491,0.671 -0.934,1.414 -1.155,2.219 L 65.3,92.83 c 0.73,-0.774 1.55,-1.469 2.479,-1.994 0.747,-0.453 1.164,-1.346 1.063,-2.208 -0.045,-0.184 0.033,-0.511 -0.208,-0.56 z"
   id="path9"
   style="fill:#ffcc00"
   inkscape:connector-curvature="0" />
	</g><path
     inkscape:connector-curvature="0"
     id="path4326"
     d="m 63.140154,48.170047 c -1.02499,0.54058 -1.94754,1.12077 -1.65625,0.90625 -1.77,5.028 -2.861749,10.3415 -2.718749,15.687505 0.02784,1.11828 0.160011,2.23178 0.28125,3.34375 0.008,0.073 0.02348,0.14571 0.03125,0.21875 0.0056,0.053 0.02582,0.10329 0.03125,0.15625 l 0,0.15625 0,0.125 0,0.0937 0,0.1875 0,0.28125 0,0.1875 0,0.125 0,0.0625 0,0.0312 c 0.0054,0.0127 0.02509,0.0195 0.03125,0.0312 0.0023,0.004 0.02883,-0.004 0.03125,0 0.163189,-0.25502 0.323769,-0.51102 0.468749,-0.78125 0.0376,-0.0701 0.0988,-0.1124 0.125,-0.1875 0.0851,-0.24344 0.0238,-0.53681 0.21875,-0.75 0.0699,-0.10475 0.12419,-0.20362 0.1875,-0.3125 0.0411,-0.0707 0.0873,-0.1461 0.125,-0.21875 -0.34058,-2.4925 -0.31828,-5.031515 -0.0625,-7.531255 0.437,-4.049 1.53925,-7.9855 2.90625,-11.8125 z"
     style="fill:#ff2a7f;fill-opacity:1" /></g></svg>